<mxfile host="app.diagrams.net" modified="2023-12-29T18:46:13.569Z" agent="Mozilla/5.0 (Macintosh; Intel Mac OS X 10_15_7) AppleWebKit/537.36 (KHTML, like Gecko) Chrome/120.0.0.0 Safari/537.36" etag="zedsGb_a3PmRtrhVMTic" version="22.1.15" type="device">
  <diagram name="Page-1" id="nIhTbpJgNjFbYcRsNPa4">
    <mxGraphModel dx="954" dy="540" grid="1" gridSize="10" guides="1" tooltips="1" connect="1" arrows="1" fold="1" page="1" pageScale="1" pageWidth="827" pageHeight="1169" math="0" shadow="0">
      <root>
        <mxCell id="0" />
        <mxCell id="1" parent="0" />
        <mxCell id="cYAbW-iQbSKfLTQkR3jR-3" value="FLIGHTS" style="swimlane;fontStyle=0;childLayout=stackLayout;horizontal=1;startSize=26;horizontalStack=0;resizeParent=1;resizeParentMax=0;resizeLast=0;collapsible=1;marginBottom=0;align=center;fontSize=14;" vertex="1" parent="1">
          <mxGeometry x="400" y="160" width="160" height="180" as="geometry" />
        </mxCell>
        <mxCell id="cYAbW-iQbSKfLTQkR3jR-4" value="&lt;u&gt;fno&lt;br&gt;&lt;/u&gt;fromCity&lt;u&gt;&lt;br&gt;&lt;/u&gt;" style="text;strokeColor=none;fillColor=none;spacingLeft=4;spacingRight=4;overflow=hidden;rotatable=0;points=[[0,0.5],[1,0.5]];portConstraint=eastwest;fontSize=12;whiteSpace=wrap;html=1;" vertex="1" parent="cYAbW-iQbSKfLTQkR3jR-3">
          <mxGeometry y="26" width="160" height="30" as="geometry" />
        </mxCell>
        <mxCell id="cYAbW-iQbSKfLTQkR3jR-6" value="toCity&lt;br&gt;distance&lt;br&gt;depDate&lt;br&gt;depTime&lt;br&gt;arrDate&lt;br&gt;arrTime&lt;br&gt;price" style="text;strokeColor=none;fillColor=none;spacingLeft=4;spacingRight=4;overflow=hidden;rotatable=0;points=[[0,0.5],[1,0.5]];portConstraint=eastwest;fontSize=12;whiteSpace=wrap;html=1;" vertex="1" parent="cYAbW-iQbSKfLTQkR3jR-3">
          <mxGeometry y="56" width="160" height="124" as="geometry" />
        </mxCell>
        <mxCell id="cYAbW-iQbSKfLTQkR3jR-7" value="AIRCRAFTS" style="swimlane;fontStyle=0;childLayout=stackLayout;horizontal=1;startSize=26;horizontalStack=0;resizeParent=1;resizeParentMax=0;resizeLast=0;collapsible=1;marginBottom=0;align=center;fontSize=14;" vertex="1" parent="1">
          <mxGeometry x="650" y="380" width="160" height="90" as="geometry" />
        </mxCell>
        <mxCell id="cYAbW-iQbSKfLTQkR3jR-8" value="&lt;u&gt;aid&lt;br&gt;&lt;/u&gt;aname&lt;u&gt;&lt;br&gt;&lt;/u&gt;" style="text;strokeColor=none;fillColor=none;spacingLeft=4;spacingRight=4;overflow=hidden;rotatable=0;points=[[0,0.5],[1,0.5]];portConstraint=eastwest;fontSize=12;whiteSpace=wrap;html=1;" vertex="1" parent="cYAbW-iQbSKfLTQkR3jR-7">
          <mxGeometry y="26" width="160" height="30" as="geometry" />
        </mxCell>
        <mxCell id="cYAbW-iQbSKfLTQkR3jR-9" value="crange&lt;br&gt;" style="text;strokeColor=none;fillColor=none;spacingLeft=4;spacingRight=4;overflow=hidden;rotatable=0;points=[[0,0.5],[1,0.5]];portConstraint=eastwest;fontSize=12;whiteSpace=wrap;html=1;" vertex="1" parent="cYAbW-iQbSKfLTQkR3jR-7">
          <mxGeometry y="56" width="160" height="34" as="geometry" />
        </mxCell>
        <mxCell id="cYAbW-iQbSKfLTQkR3jR-11" value="EMPLOYEES" style="swimlane;fontStyle=0;childLayout=stackLayout;horizontal=1;startSize=26;horizontalStack=0;resizeParent=1;resizeParentMax=0;resizeLast=0;collapsible=1;marginBottom=0;align=center;fontSize=14;" vertex="1" parent="1">
          <mxGeometry x="180" y="390" width="160" height="90" as="geometry" />
        </mxCell>
        <mxCell id="cYAbW-iQbSKfLTQkR3jR-12" value="&lt;u&gt;empid&lt;br&gt;&lt;/u&gt;lastname&lt;u&gt;&lt;br&gt;&lt;/u&gt;" style="text;strokeColor=none;fillColor=none;spacingLeft=4;spacingRight=4;overflow=hidden;rotatable=0;points=[[0,0.5],[1,0.5]];portConstraint=eastwest;fontSize=12;whiteSpace=wrap;html=1;" vertex="1" parent="cYAbW-iQbSKfLTQkR3jR-11">
          <mxGeometry y="26" width="160" height="30" as="geometry" />
        </mxCell>
        <mxCell id="cYAbW-iQbSKfLTQkR3jR-13" value="firstname&lt;br&gt;salary" style="text;strokeColor=none;fillColor=none;spacingLeft=4;spacingRight=4;overflow=hidden;rotatable=0;points=[[0,0.5],[1,0.5]];portConstraint=eastwest;fontSize=12;whiteSpace=wrap;html=1;" vertex="1" parent="cYAbW-iQbSKfLTQkR3jR-11">
          <mxGeometry y="56" width="160" height="34" as="geometry" />
        </mxCell>
        <mxCell id="cYAbW-iQbSKfLTQkR3jR-14" value="CERTIFIED" style="swimlane;fontStyle=0;childLayout=stackLayout;horizontal=1;startSize=26;horizontalStack=0;resizeParent=1;resizeParentMax=0;resizeLast=0;collapsible=1;marginBottom=0;align=center;fontSize=14;" vertex="1" parent="1">
          <mxGeometry x="414" y="450" width="160" height="80" as="geometry" />
        </mxCell>
        <mxCell id="cYAbW-iQbSKfLTQkR3jR-15" value="&lt;u&gt;empid&lt;br&gt;&lt;/u&gt;&lt;u style=&quot;border-color: var(--border-color);&quot;&gt;aid&lt;/u&gt;&lt;u&gt;&lt;br&gt;&lt;/u&gt;" style="text;strokeColor=none;fillColor=none;spacingLeft=4;spacingRight=4;overflow=hidden;rotatable=0;points=[[0,0.5],[1,0.5]];portConstraint=eastwest;fontSize=12;whiteSpace=wrap;html=1;" vertex="1" parent="cYAbW-iQbSKfLTQkR3jR-14">
          <mxGeometry y="26" width="160" height="54" as="geometry" />
        </mxCell>
        <mxCell id="cYAbW-iQbSKfLTQkR3jR-18" value="" style="endArrow=ERmany;html=1;rounded=0;exitX=1;exitY=0.5;exitDx=0;exitDy=0;entryX=0.006;entryY=0.278;entryDx=0;entryDy=0;entryPerimeter=0;endFill=0;" edge="1" parent="1" source="cYAbW-iQbSKfLTQkR3jR-12" target="cYAbW-iQbSKfLTQkR3jR-15">
          <mxGeometry relative="1" as="geometry">
            <mxPoint x="560" y="420" as="sourcePoint" />
            <mxPoint x="411" y="487" as="targetPoint" />
            <Array as="points" />
          </mxGeometry>
        </mxCell>
        <mxCell id="cYAbW-iQbSKfLTQkR3jR-19" value="1" style="text;html=1;align=center;verticalAlign=middle;resizable=0;points=[];autosize=1;strokeColor=none;fillColor=none;" vertex="1" parent="1">
          <mxGeometry x="335" y="408" width="30" height="30" as="geometry" />
        </mxCell>
        <mxCell id="cYAbW-iQbSKfLTQkR3jR-20" value="M" style="text;html=1;align=center;verticalAlign=middle;resizable=0;points=[];autosize=1;strokeColor=none;fillColor=none;" vertex="1" parent="1">
          <mxGeometry x="385" y="458" width="30" height="30" as="geometry" />
        </mxCell>
        <mxCell id="cYAbW-iQbSKfLTQkR3jR-21" value="" style="endArrow=ERmany;html=1;rounded=0;endFill=0;exitX=0;exitY=0.5;exitDx=0;exitDy=0;entryX=1;entryY=0.5;entryDx=0;entryDy=0;" edge="1" parent="1" source="cYAbW-iQbSKfLTQkR3jR-8" target="cYAbW-iQbSKfLTQkR3jR-15">
          <mxGeometry relative="1" as="geometry">
            <mxPoint x="320" y="560" as="sourcePoint" />
            <mxPoint x="770" y="610" as="targetPoint" />
            <Array as="points">
              <mxPoint x="620" y="460" />
            </Array>
          </mxGeometry>
        </mxCell>
        <mxCell id="cYAbW-iQbSKfLTQkR3jR-22" value="1" style="text;html=1;align=center;verticalAlign=middle;resizable=0;points=[];autosize=1;strokeColor=none;fillColor=none;" vertex="1" parent="1">
          <mxGeometry x="625" y="398" width="30" height="30" as="geometry" />
        </mxCell>
        <mxCell id="cYAbW-iQbSKfLTQkR3jR-23" value="M" style="text;html=1;align=center;verticalAlign=middle;resizable=0;points=[];autosize=1;strokeColor=none;fillColor=none;" vertex="1" parent="1">
          <mxGeometry x="575" y="448" width="30" height="30" as="geometry" />
        </mxCell>
      </root>
    </mxGraphModel>
  </diagram>
</mxfile>
